<?xml version="1.0" encoding="UTF-8" standalone="no"?>
<!-- Created with Inkscape (http://www.inkscape.org/) -->

<svg
   xml:space="preserve"
   id="svg5"
   version="1.1"
   viewBox="0 0 210 297"
   height="297mm"
   width="210mm"
   xmlns="http://www.w3.org/2000/svg"
   xmlns:svg="http://www.w3.org/2000/svg"
   xmlns:rdf="http://www.w3.org/1999/02/22-rdf-syntax-ns#"
   xmlns:cc="http://creativecommons.org/ns#"
   xmlns:dc="http://purl.org/dc/elements/1.1/"><title
     id="title194">Ingeniaux Logo</title><defs
     id="defs2" /><g
     id="layer1"><path
       style="fill:#000000;stroke-width:0.447913"
       d="m 41.47892,78.217653 c -0.280766,-0.338305 -0.379589,-0.956206 -0.219608,-1.37311 0.231477,-0.603228 0.635262,-0.699829 1.977372,-0.473082 1.020902,0.172478 1.803452,0.09569 1.98285,-0.194587 0.190439,-0.308137 -0.303085,-0.479518 -1.380881,-0.479518 -1.083032,0 -2.029075,-0.330529 -2.670339,-0.932963 -0.851904,-0.800327 -0.983371,-0.825061 -0.924695,-0.173965 0.0961,1.066383 -1.143402,1.741281 -2.549752,1.388307 -1.145449,-0.287489 -1.189111,-0.413773 -1.189111,-3.439365 0,-2.438602 -0.156963,-3.201148 -0.701977,-3.410292 -1.156878,-0.443936 -1.673313,0.551095 -1.948475,3.754186 l -0.260984,3.038049 h -3.807264 -3.807264 l -0.14173,-1.231762 c -0.101239,-0.879823 0.05873,-1.231762 0.559892,-1.231762 0.572449,0 0.710359,-0.639092 0.749084,-3.471329 0.0261,-1.90923 0.01301,-4.005631 -0.0291,-4.65867 -0.08981,-1.392814 0.522423,-1.897146 1.80778,-1.489191 0.706248,0.224153 0.899906,0.624391 0.826706,1.708588 -0.05257,0.778719 -0.06629,2.877176 -0.03048,4.66323 0.05869,2.92706 0.153474,3.247372 0.960939,3.247372 0.816198,0 0.895827,-0.29861 0.895827,-3.35935 v -3.35935 h 2.825827 c 3.8269,0 4.448385,0.525357 4.697622,3.971029 0.109313,1.51122 0.341175,2.747671 0.515252,2.747671 0.174077,0 0.228131,-0.602103 0.120126,-1.338007 -0.264627,-1.803008 0.190224,-3.427737 1.258749,-4.496262 0.749607,-0.749605 1.498962,-0.884431 4.915654,-0.884431 3.227368,0 4.031221,0.129823 4.031221,0.651037 0,0.546643 0.209811,0.530621 1.308431,-0.0999 0.71964,-0.413016 1.206168,-0.916408 1.081177,-1.11865 -0.12499,-0.202242 0.09711,-0.862748 0.493547,-1.467799 0.498232,-0.760395 1.13254,-1.100084 2.054216,-1.100084 1.561695,0 1.697462,0.674535 0.411323,2.043569 l -0.922096,0.981526 1.175566,0.295045 c 1.906525,0.47851 3.30724,4.769359 1.751771,5.366249 -0.389675,0.149536 -1.740134,0.271879 -3.001019,0.271879 -1.787416,0 -2.173684,0.118831 -1.753178,0.539337 0.296635,0.296635 1.247779,0.491625 2.113649,0.433311 1.127372,-0.07592 1.656151,0.107253 1.86259,0.645219 0.659243,1.717968 -2.761511,2.571229 -5.217174,1.301359 -1.492313,-0.771706 -2.482582,-3.235189 -2.089843,-5.19889 0.143404,-0.717002 0.09262,-1.303643 -0.112847,-1.303643 -0.205472,0 -0.483209,1.75724 -0.617202,3.904971 -0.219482,3.517988 -0.361377,4.006263 -1.431854,4.927047 -1.371596,1.179794 -4.725544,1.424843 -5.570296,0.406979 z m 3.200256,-0.577374 c -0.307941,-0.124256 -0.811843,-0.124256 -1.119784,0 -0.30794,0.124255 -0.05599,0.225923 0.559892,0.225923 0.615881,0 0.867832,-0.101665 0.559892,-0.225923 z m 3.338831,-9.55745 c 0.401344,0 0.609753,-0.119961 0.463133,-0.26658 -0.146619,-0.14662 -0.884346,-0.130894 -1.639398,0.03494 -1.250664,0.274692 -1.309905,0.36444 -0.665752,1.008593 0.494797,0.494792 0.674289,1.392003 0.597875,2.988474 -0.06005,1.254771 -0.03538,2.785304 0.05481,3.401185 0.09021,0.615881 0.230523,-0.744656 0.311815,-3.023415 0.123777,-3.469721 0.266419,-4.143199 0.877516,-4.143199 z m -19.478313,4.143808 c -0.220846,-4.494686 -0.408895,-4.935294 -0.47818,-1.120393 -0.03691,2.032407 0.08406,3.695559 0.268823,3.695894 0.184765,3.36e-4 0.278975,-1.158639 0.209357,-2.575501 z m 4.381755,-0.08059 c 0,-1.734334 0.227497,-2.882981 0.655821,-3.311307 0.575818,-0.57582 0.552465,-0.682849 -0.191433,-0.877382 -0.769831,-0.201315 -0.860458,0.101374 -0.991756,3.31236 -0.07947,1.943653 0.0067,3.533445 0.191433,3.532867 0.184765,-4.48e-4 0.335935,-1.196023 0.335935,-2.656538 z m 11.757727,2.358841 c -0.307941,-0.124255 -0.811843,-0.124255 -1.119784,0 -0.30794,0.124256 -0.05599,0.225923 0.559892,0.225923 0.615881,0 0.867832,-0.101665 0.559892,-0.225923 z m 7.502549,0.12753 c 0,-0.09301 -0.352732,-0.445741 -0.783849,-0.783848 -0.710417,-0.557146 -0.72626,-0.541303 -0.169114,0.169114 0.585141,0.746112 0.952963,0.983385 0.952963,0.614734 z m -6.637203,-2.294409 c 0.995326,-2.1845 -1.104877,-4.396373 -2.679396,-2.821854 -0.692886,0.692886 -0.692886,2.711255 0,3.404141 0.883635,0.883635 2.135427,0.611595 2.679396,-0.582287 z m -4.56275,-0.990928 c -0.488051,-0.761134 -0.500691,-0.760158 -0.25566,0.01975 0.141778,0.451264 0.273693,1.055947 0.293141,1.34374 0.02553,0.377663 0.09666,0.372163 0.255656,-0.01975 0.121165,-0.298659 -0.01075,-0.903342 -0.293137,-1.34374 z m 9.991285,-0.471514 c 0.08035,-1.015693 -0.01796,-1.745334 -0.218452,-1.621419 -0.200495,0.123911 -0.364534,1.053237 -0.364534,2.065163 0,2.312034 0.388377,2.016416 0.582986,-0.443744 z m 5.536532,-1.11306 c -0.124256,-0.30794 -0.225923,-0.05599 -0.225923,0.559892 0,0.615881 0.101665,0.867832 0.225923,0.559891 0.124256,-0.30794 0.124256,-0.811843 0,-1.119783 z M 37.476034,68.42703 c -0.332382,-0.332383 -0.390674,-0.157504 -0.195844,0.587532 0.158386,0.605669 0.361422,0.808708 0.473243,0.473243 0.107712,-0.323142 -0.01711,-0.800493 -0.277399,-1.060775 z m 17.169214,0.999541 c -0.152255,-0.246352 -0.656157,-0.447913 -1.119783,-0.447913 -0.463626,0 -0.967529,0.201561 -1.119784,0.447913 -0.161943,0.262029 0.302767,0.447913 1.119784,0.447913 0.817016,0 1.281726,-0.185884 1.119783,-0.447913 z M 36.168821,67.786187 c -0.30794,-0.124256 -0.811843,-0.124256 -1.119783,0 -0.30794,0.124255 -0.05599,0.225923 0.559892,0.225923 0.615881,0 0.867832,-0.101665 0.559891,-0.225923 z M 0.28929334,75.552349 c -0.55319273,-0.666558 -0.25981842,-2.09456 0.43031486,-2.09456 0.21999534,0 0.3999916,-2.20359 0.3999916,-4.896862 0,-4.496146 0.07298,-4.920028 0.8918184,-5.179917 0.4905005,-0.155676 1.0951836,-0.157365 1.3437401,-0.0036 0.2578807,0.159211 0.4519217,2.314028 0.4519217,5.01839 0,3.992861 0.1234504,4.831082 0.7838485,5.322295 0.6181025,0.459752 0.6794901,0.754331 0.2903173,1.393118 -0.6342709,1.041094 -3.8385541,1.348905 -4.59195246,0.441119 z M 2.8359577,69.538547 c -0.078021,-5.453448 -0.2670674,-4.830316 -0.4759286,1.56875 -0.066355,2.032984 0.030525,3.695863 0.2152892,3.695285 0.1847642,-4.48e-4 0.3020521,-2.369395 0.2606394,-5.264035 z m 4.2419471,6.153528 C 4.6535333,74.715745 3.9579579,70.380624 5.8625075,68.117197 6.856845,66.93549 7.32448,66.739089 9.1437798,66.739089 c 2.1308782,0 3.5506582,0.908251 4.2010662,2.68748 0.194225,0.531315 0.253002,0.507889 0.280967,-0.111979 0.07745,-1.716852 1.657213,-2.575501 4.738452,-2.575501 h 2.911437 v 2.01561 c 0,1.269086 -0.199073,2.01561 -0.537496,2.01561 -0.418052,0 -0.418052,0.119445 0,0.537496 0.59409,0.59409 0.70868,2.544936 0.194702,3.314693 -0.54756,0.820045 -2.208224,1.522771 -3.598575,1.522771 -1.673222,0 -3.673159,-1.557493 -3.673159,-2.860549 0,-0.953536 -0.140386,-0.994135 -2.799458,-0.809612 -1.5397025,0.106849 -2.8834426,0.270875 -2.9860898,0.364516 -0.4675219,0.426494 0.615854,0.810862 2.3275448,0.825782 1.419748,0.01236 1.91195,0.20634 2.027218,0.798885 0.264132,1.357795 -2.936061,2.120368 -5.1524842,1.227784 z M 7.246178,73.993825 C 6.4548371,73.1194 6.3370045,70.267759 7.0296925,68.754699 7.4332591,67.873174 7.428687,67.872753 6.7432261,68.728317 c -0.9233588,1.152521 -0.8973138,4.213153 0.044713,5.254082 0.4077109,0.450515 0.8420715,0.819117 0.9652477,0.819117 0.1231762,0 -0.1049797,-0.363468 -0.5070077,-0.807704 z m 11.2215,-0.846274 c 0.08767,-0.263015 -0.454024,-0.568241 -1.203767,-0.67828 -1.507426,-0.221242 -1.792207,0.246648 -0.579321,0.951821 0.895833,0.520838 1.55184,0.420201 1.783088,-0.273541 z m 1.518961,-0.88793 c -0.52802,-0.908015 -0.655526,-0.617382 -0.223299,0.508982 0.15361,0.4003 0.373647,0.633466 0.48897,0.518141 0.115323,-0.115324 -0.0043,-0.57753 -0.265671,-1.027123 z m -5.429638,-0.791006 c 0,-0.108642 -0.201561,-0.322095 -0.447913,-0.474349 -0.246353,-0.152255 -0.447914,-0.06337 -0.447914,0.19752 0,0.260892 0.201561,0.47435 0.447914,0.47435 0.246352,0 0.447913,-0.08889 0.447913,-0.197521 z m -2.239567,-1.146219 c 0,-0.492705 -0.07728,-0.895827 -0.171716,-0.895827 -0.09444,0 -0.277134,0.403122 -0.40598,0.895827 -0.128845,0.492704 -0.05158,0.895826 0.171716,0.895826 0.22329,0 0.40598,-0.403122 0.40598,-0.895826 z M 15.5449,69.450223 c 0.106558,-0.726045 0.02866,-1.218051 -0.17312,-1.093348 -0.359119,0.221946 -0.535048,2.413434 -0.193747,2.413434 0.09522,0 0.260305,-0.594036 0.366867,-1.320086 z m 3.205298,0.200302 c -0.284214,-0.740651 -1.751376,-0.913582 -2.158746,-0.254441 -0.141893,0.229587 0.299724,0.50173 0.98137,0.604759 0.681646,0.103031 1.283421,0.217529 1.337277,0.254442 0.05386,0.03691 -0.0181,-0.235231 -0.159901,-0.60476 z m -8.448374,-0.223956 c -0.152255,-0.246353 -0.6561573,-0.447914 -1.1197834,-0.447914 -0.4636262,0 -0.9675288,0.201561 -1.1197835,0.447914 -0.1619431,0.262029 0.3027693,0.447913 1.1197835,0.447913 0.8170141,0 1.2817264,-0.185884 1.1197834,-0.447913 z m 10.078051,-0.447914 c 0,-0.499916 -0.298609,-0.895826 -0.675666,-0.895826 -0.56354,0 -0.582826,0.148658 -0.116212,0.895826 0.307699,0.492705 0.611748,0.895827 0.675666,0.895827 0.06392,0 0.116212,-0.403122 0.116212,-0.895827 z m 37.288788,6.86997 c -0.766231,-0.309181 -0.706878,-1.81615 0.08908,-2.26159 0.447179,-0.250254 0.690902,-1.336516 0.783849,-3.493586 l 0.134878,-3.130404 2.851071,-0.134692 c 3.825758,-0.180737 4.539499,0.449969 4.539499,4.011378 0,2.48441 0.05639,2.618058 1.104631,2.618058 1.09784,0 1.10541,-0.02956 1.231762,-4.815069 0.118128,-4.474081 0.190569,-4.815068 1.022958,-4.815068 0.832388,0 0.904829,0.340987 1.022958,4.815068 0.102292,3.874263 0.255445,4.815069 0.783848,4.815069 0.361193,0 0.656717,-0.403122 0.656717,-0.895827 0,-1.522139 1.586155,-2.68748 3.657961,-2.68748 1.026465,0 1.712843,-0.151171 1.525284,-0.335935 -0.187559,-0.184764 -1.072878,-0.335935 -1.96737,-0.335935 -1.233984,0 -1.666628,-0.203173 -1.793311,-0.842153 -0.223486,-1.127241 0.650133,-1.606244 2.944592,-1.614513 2.70764,-0.0097 3.695285,1.099094 3.695285,4.148775 0,1.83537 0.207061,2.541273 0.926003,3.156845 1.619838,1.38695 0.846229,1.864251 -3.149454,1.943146 -3.423053,0.06759 -3.806422,-0.01572 -4.843229,-1.052529 -0.619258,-0.619263 -1.007841,-0.818199 -0.863514,-0.442082 0.476485,1.241697 -0.808601,1.689418 -4.45694,1.552795 l -3.513791,-0.131583 -0.223957,-3.21153 c -0.246209,-3.530642 -0.55818,-4.162365 -1.701157,-3.444754 -0.56012,0.351661 -0.798432,1.235578 -0.898321,3.331889 -0.07543,1.583033 -0.374537,3.004921 -0.67187,3.193944 -0.593974,0.3776 -2.023928,0.406204 -2.887461,0.05776 z m 2.575502,-3.86895 c 0,-1.597559 0.233198,-3.055051 0.537496,-3.35935 0.418051,-0.418051 0.376149,-0.537496 -0.188571,-0.537496 -0.591864,0 -0.753301,0.621112 -0.873431,3.360394 -0.08105,1.848216 0.0036,3.359923 0.188571,3.35935 0.184765,-4.48e-4 0.335935,-1.270878 0.335935,-2.822898 z m 5.020397,0.694266 c -0.219271,-3.403685 -0.43315,-3.697364 -0.489305,-0.67187 -0.02858,1.539702 0.100669,2.799458 0.287207,2.799458 0.186538,0 0.277482,-0.957415 0.202098,-2.127588 z m 4.483165,-0.447304 C 69.52158,67.624125 69.37814,67.34305 69.17649,71.107297 c -0.123091,2.297777 -0.02853,3.696167 0.2499,3.695894 0.261326,-2.55e-4 0.395185,-1.073568 0.321337,-2.576554 z m 4.157796,0.783239 c 0,-2.032206 -0.03539,-2.091348 -0.603182,-1.007805 -0.340764,0.650303 0.02526,2.799458 0.476772,2.799458 0.06953,0 0.12641,-0.806244 0.12641,-1.791653 z m 5.151004,-0.726713 c 0,-2.196894 -0.08647,-2.446606 -0.677393,-1.956185 -0.480293,0.398607 -0.542656,0.72454 -0.214331,1.120146 0.305155,0.367692 0.316792,0.942692 0.03413,1.68617 -0.23592,0.620517 -0.307438,1.249714 -0.158933,1.398224 0.7168,0.716796 1.016535,0.05384 1.016535,-2.248355 z m -1.791653,0.263042 c 0,-0.600262 -2.117341,-0.544381 -2.494475,0.06583 -0.169275,0.273899 -0.04085,0.662956 0.285366,0.864576 0.655378,0.405043 2.209109,-0.249345 2.209109,-0.93041 z m -1.017135,-1.598599 c -0.148842,-0.148837 -0.535167,-0.164747 -0.858503,-0.03534 -0.357314,0.142983 -0.25118,0.249121 0.270616,0.270611 0.472173,0.01944 0.736724,-0.08641 0.587887,-0.235253 z M 63.500061,67.789024 c -0.303251,-0.122692 -0.907934,-0.130159 -1.34374,-0.01662 -0.435806,0.113564 -0.187689,0.21395 0.551368,0.223079 0.739057,0.0092 1.095623,-0.08378 0.792372,-0.206484 z m 19.175436,7.614151 c -0.779495,-0.545979 -0.93149,-1.123371 -0.93149,-3.538479 0,-2.26676 -0.144169,-2.886041 -0.67187,-2.886041 -0.418051,0 -0.67187,-0.423027 -0.67187,-1.119783 0,-1.00574 0.180474,-1.119783 1.772031,-1.119783 h 1.77203 l 0.131602,3.247371 c 0.126853,3.130162 0.172021,3.247372 1.251384,3.247372 1.080291,0 1.124447,-0.115507 1.251945,-3.275173 0.131879,-3.26808 0.134791,-3.274874 1.34374,-3.135394 1.176745,0.135762 1.215337,0.23197 1.342361,3.346446 0.15363,3.766969 0.890635,4.48587 2.721683,2.654823 0.991259,-0.991259 1.056395,-1.251013 0.577351,-2.302396 -0.296975,-0.651795 -0.938226,-1.289229 -1.424996,-1.416522 -0.569141,-0.148832 -0.885036,-0.612476 -0.885036,-1.298984 0,-0.946858 0.202546,-1.067543 1.791653,-1.067543 1.223193,0 1.791654,0.195769 1.791654,0.617027 0,0.339362 0.302341,0.867944 0.67187,1.174626 0.568169,0.471541 0.67187,0.376301 0.67187,-0.617028 0,-1.110941 0.12142,-1.174625 2.239567,-1.174625 2.090264,0 2.239566,0.07465 2.239566,1.119783 0,0.615881 -0.251951,1.126117 -0.559891,1.133857 -0.307941,0.0077 -0.93381,0.527261 -1.390821,1.154483 -0.827107,1.135151 -0.824348,1.148598 0.599147,2.919943 1.849593,2.301571 1.558891,3.176857 -0.993731,2.992088 -1.717587,-0.124323 -1.931663,-0.270499 -2.169939,-1.48167 l -0.264354,-1.343741 -0.185709,1.343741 -0.185705,1.34374 -5.451276,0.06715 c -4.134348,0.05093 -5.676304,-0.09047 -6.382766,-0.585288 z m 0.949747,-1.139142 c -0.312662,-0.312661 -0.537496,-1.811559 -0.537496,-3.583307 0,-2.875407 -0.05638,-3.042904 -1.007806,-2.993853 -0.758393,0.0391 -0.813818,0.102651 -0.223956,0.256802 0.640668,0.167421 0.783848,0.714292 0.783848,2.993849 0,2.421997 0.484754,3.864005 1.298949,3.864005 0.123176,0 -0.01792,-0.241873 -0.313539,-0.537496 z m 4.402728,-2.932789 -0.210779,-3.472372 -0.239347,3.135394 c -0.244995,3.209402 -0.189897,3.806484 0.351406,3.808307 0.170225,4.48e-4 0.214649,-1.561525 0.09872,-3.471329 z m 5.361783,2.743573 c 0,-0.595188 -0.121604,-0.625794 -0.67187,-0.169114 -0.369528,0.306681 -0.67187,0.633703 -0.67187,0.726712 0,0.09301 0.302342,0.169114 0.67187,0.169114 0.369529,0 0.67187,-0.327021 0.67187,-0.726712 z m 4.071434,-0.09397 c -0.241568,-0.45138 -0.752566,-1.080743 -1.135541,-1.398587 -0.382979,-0.317843 -0.689957,-0.905949 -0.682172,-1.306899 0.01595,-0.821536 1.743149,-2.936583 2.710172,-3.318756 0.349265,-0.138029 0.01433,-0.266876 -0.74428,-0.286324 -1.128146,-0.02893 -1.372828,0.137465 -1.34374,0.913766 0.0575,1.534564 -1.281597,2.092664 -2.513717,1.047651 l -1.034026,-0.876996 0.783849,0.931095 c 0.92439,1.098037 0.997427,2.023959 0.223956,2.839265 -0.459935,0.484812 -0.384444,0.484364 0.422857,-0.0027 0.850677,-0.51304 1.108631,-0.47877 1.91943,0.254993 0.515172,0.466229 0.835117,1.112353 0.710982,1.435836 -0.124677,0.324911 0.07578,0.588155 0.447878,0.588155 0.514217,0 0.56966,-0.194162 0.234352,-0.820685 z m -4.743304,-5.898015 c -0.152255,-0.246353 -0.516883,-0.444828 -0.810284,-0.441056 -0.320531,0.004 -0.265286,0.180164 0.138414,0.441056 0.860495,0.556098 1.015554,0.556098 0.67187,0 z m -53.525648,-8.95827 c -0.492705,-0.492704 -0.895827,-1.292593 -0.895827,-1.777526 0,-0.548681 -0.923239,-1.563733 -2.444398,-2.68748 -1.888892,-1.395403 -2.848522,-1.805781 -4.222667,-1.805781 -2.804204,0 -4.430182,-2.604195 -3.13592,-5.022547 0.77036,-1.439432 -0.226443,-4.219671 -1.805682,-5.036329 -1.381002,-0.714144 -1.828734,-1.500438 -1.828734,-3.21156 0,-1.42174 1.881605,-3.302358 3.304088,-3.302358 1.711227,0 4.310439,-3.279217 4.310439,-5.438135 0,-1.165415 0.305717,-1.9784 0.980285,-2.606857 1.17152,-1.091436 3.765476,-1.216179 4.851534,-0.23331 0.669491,0.605883 1.096675,0.607323 3.920926,0.01322 2.189365,-0.460546 3.519963,-1.01713 4.302584,-1.799748 0.623151,-0.623152 1.608063,-1.133006 2.188689,-1.133006 0.964877,0 2.69849,1.193861 3.082535,2.122798 0.08672,0.209773 1.726209,0.832688 3.643301,1.384257 3.174586,0.913364 3.573179,0.941527 4.46682,0.315596 2.534428,-1.775184 6.156829,0.179932 6.156829,3.323022 0,1.174453 4.135943,4.052161 5.823909,4.052161 0.745489,0 1.74116,0.398453 2.238532,0.895827 0.96606,0.96606 1.194616,3.105352 0.415055,3.884913 -0.658671,0.65867 0.814069,8.743327 1.68552,9.252708 1.006228,0.588159 1.51495,2.396287 1.031764,3.667161 -0.602184,1.583862 -2.42718,2.201521 -4.07538,1.379291 -1.14432,-0.570861 -2.016999,-0.537353 -7.676573,0.294772 -5.397441,0.793581 -6.538115,1.09994 -7.371901,1.979924 -1.122471,1.184664 -2.646013,1.337649 -3.984539,0.400108 -1.421991,-0.996003 -8.371125,-0.26305 -9.745242,1.027867 -1.336726,1.255787 -3.990134,1.286823 -5.215947,0.06101 z m 4.088356,-0.783848 c 0.556138,-0.709132 0.540573,-0.725714 -0.163296,-0.173938 -0.465467,0.364883 -1.23023,0.496413 -1.903632,0.327402 -0.873789,-0.219307 -1.125602,-0.568944 -1.125602,-1.562873 0,-1.810278 1.028472,-2.56374 2.588765,-1.896537 1.124845,0.480996 1.152396,0.469373 0.358465,-0.151215 -0.567963,-0.443954 -1.404598,-0.590597 -2.463523,-0.431802 -1.365124,0.20471 -1.986351,-0.03462 -4.178992,-1.610007 -2.136749,-1.535223 -2.575502,-2.075917 -2.575502,-3.173887 0,-1.02591 -0.33669,-1.522082 -1.497675,-2.20708 -1.02583,-0.605252 -1.660852,-1.428284 -2.015611,-2.612361 -0.636489,-2.124413 -0.661394,-3.498857 -0.07002,-3.864345 0.246353,-0.152255 0.424533,-0.718443 0.395956,-1.258197 -0.04815,-0.909385 -0.06812,-0.91566 -0.272157,-0.08554 -0.329894,1.342104 -1.019394,2.014037 -2.082275,2.02923 -0.833793,0.01191 -0.859334,0.06825 -0.204248,0.450507 1.144885,0.668058 2.411182,4.858041 1.775718,5.87558 -1.230993,1.971132 0.204979,4.249891 2.340364,3.713945 1.669658,-0.419059 6.807192,3.255519 7.227559,5.169453 0.468813,2.134482 2.681814,2.971242 3.865707,1.461667 z m -12.710689,-7.31447 c -1.954268,-1.138256 -0.09333,-4.16826 1.903632,-3.099516 1.155209,0.61825 1.173043,2.507598 0.02945,3.119636 -1.031112,0.551834 -0.94964,0.55268 -1.933077,-0.02011 z m 1.591356,-1.525683 c 0.04858,-0.242979 -0.264412,-0.509712 -0.695529,-0.592737 -0.490287,-0.09442 -0.783848,0.125268 -0.783848,0.586601 0,0.779275 1.323716,0.784762 1.479377,0.0062 z m 10.190029,7.160478 c -0.03512,-0.664834 -1.037197,-0.542692 -1.269677,0.154754 -0.125586,0.376749 0.07918,0.544658 0.546221,0.447913 0.410916,-0.08512 0.736468,-0.356315 0.723456,-0.602667 z m 7.255055,-0.0237 c 3.30565,-0.22143 4.783813,-0.165114 5.00368,0.190636 0.171627,0.277702 0.552107,0.498783 0.845508,0.49129 0.293402,-0.0075 0.180725,-0.219066 -0.250392,-0.47017 -0.431117,-0.251101 -0.783848,-0.718771 -0.783848,-1.039271 0,-0.450306 -0.525466,-0.499652 -2.312488,-0.217162 -1.271868,0.201055 -3.6906,0.412909 -5.37496,0.470788 -2.283301,0.07846 -3.062474,0.265532 -3.062474,0.735259 0,0.353386 0.272968,0.525272 0.621673,0.391463 0.341919,-0.131208 2.732908,-0.379983 5.313301,-0.552833 z m 7.054514,-1.122525 c 0,-0.231813 -0.302341,-0.421477 -0.67187,-0.421477 -0.692657,0 -0.889869,0.52852 -0.385438,1.032955 0.357851,0.357852 1.057308,-0.04667 1.057308,-0.611478 z m 13.101467,-1.574926 c 2.012206,-0.203684 3.023415,-0.49932 3.023415,-0.88393 0,-0.430772 -0.370599,-0.481829 -1.455719,-0.200562 -0.800645,0.207527 -4.030378,0.726699 -7.177184,1.153708 -4.208133,0.571032 -5.985234,0.650129 -6.718701,0.299054 -1.793817,-0.858614 -2.487388,-0.958781 -2.705379,-0.390715 -0.15092,0.3933 0.178467,0.501511 1.110297,0.364745 1.022685,-0.150096 1.375766,1.39e-4 1.547975,0.65867 0.217735,0.832631 0.332706,0.83453 4.787486,0.07909 2.510416,-0.425708 5.924931,-0.911734 7.58781,-1.08006 z m -16.392618,-0.03919 c 0.402491,-0.507275 0.202654,-1.454805 -0.907745,-4.304098 -1.331589,-3.416876 -1.524205,-3.674149 -2.972551,-3.970367 -0.851783,-0.174212 -2.030955,-0.877404 -2.620382,-1.562654 -0.899142,-1.045317 -1.369034,-1.225293 -2.918523,-1.117861 -1.054366,0.0731 -2.24582,0.498621 -2.776665,0.991657 l -0.929828,0.863613 0.917529,4.226815 c 0.798271,3.677423 1.052614,4.260714 1.956817,4.487654 0.571604,0.143466 1.158008,0.570234 1.303114,0.948375 0.222555,0.579972 0.902738,0.640584 4.347976,0.387432 2.73959,-0.201297 4.254057,-0.51424 4.600258,-0.950566 z M 39.016341,49.521237 c -0.752024,-3.464377 -1.10008,-4.311395 -1.926326,-4.687857 -1.331445,-0.60665 -1.803343,-2.561079 -0.975994,-4.042221 0.832134,-1.489701 3.426065,-1.826863 4.544756,-0.590725 0.599568,0.662512 1.168355,0.778477 2.852729,0.581619 1.157117,-0.135239 2.180205,-0.476996 2.273527,-0.759463 0.09332,-0.282468 -1.503049,-1.71055 -3.547491,-3.173519 -3.414099,-2.443064 -3.873143,-2.643792 -5.630097,-2.461903 -1.594738,0.165094 -2.172137,0.514372 -3.471329,2.099865 -1.110041,1.354649 -1.558407,2.346029 -1.558407,3.445781 0,0.84918 -0.196591,1.740555 -0.436871,1.980834 -0.814514,0.814512 0.463167,3.700543 2.053747,4.639007 1.056352,0.623263 1.548623,1.303011 1.760137,2.430477 0.229455,1.223099 0.793406,1.915076 2.580113,3.165842 1.257563,0.880347 2.311879,1.600628 2.342924,1.600628 0.03104,0 -0.356593,-1.902768 -0.861418,-4.228374 z m 27.451854,2.972183 c 3.684912,-0.548246 5.23475,-0.967224 5.573574,-1.506727 0.807951,-1.286483 -0.478913,-7.993256 -1.772335,-9.236892 -0.586851,-0.564272 -1.067001,-1.403738 -1.067001,-1.865491 0,-0.801071 -3.860489,-4.051242 -4.811983,-4.051242 -0.799015,0 1.299204,6.444576 2.658832,8.166472 0.821101,1.039884 1.185421,1.886351 0.963914,2.239567 -0.195855,0.312312 -0.29784,0.921944 -0.226631,1.354741 0.07177,0.436191 -0.232659,0.920211 -0.68305,1.086006 -0.446883,0.164505 -0.966615,0.553581 -1.154949,0.864607 -0.512386,0.846171 -3.917817,0.68189 -4.258312,-0.205431 -0.46338,-1.207548 -2.109265,-2.480132 -4.985841,-3.855011 -1.787263,-0.854229 -2.893309,-1.157489 -3.179141,-0.871658 -0.285836,0.285836 0.06488,1.705717 1.008043,4.081204 1.58585,3.994146 2.880002,5.11401 5.486894,4.747953 0.739057,-0.103782 3.640649,-0.530424 6.447986,-0.948107 z m 8.557112,0.360355 c 0,-0.246352 -0.201561,-0.447913 -0.447914,-0.447913 -0.246352,0 -0.447913,0.201561 -0.447913,0.447913 0,0.246352 0.201561,0.447913 0.447913,0.447913 0.246353,0 0.447914,-0.201561 0.447914,-0.447913 z m -0.334359,-2.418199 c -0.587487,-0.950571 -1.778811,-9.030597 -1.400996,-9.50212 0.279377,-0.348673 0.05869,-0.433387 -0.734184,-0.281818 -0.79841,0.152622 -1.006023,0.370469 -0.702082,0.736692 0.237354,0.285993 0.76629,2.483774 1.175414,4.883954 0.573329,3.363493 0.623213,4.509341 0.217592,4.998086 -0.447143,0.538772 -0.358743,0.555059 0.587936,0.108305 0.612812,-0.289204 0.998161,-0.713597 0.85632,-0.943095 z M 62.696496,47.466448 c -0.465826,-0.514734 -0.631948,-1.164186 -0.44691,-1.74719 0.161983,-0.510357 0.102885,-0.927924 -0.131342,-0.927924 -0.7699,0 -1.0063,1.984176 -0.29939,2.512902 0.365681,0.273514 0.664878,0.738918 0.664878,1.034241 0,0.295322 0.21469,0.404259 0.477091,0.242088 0.313915,-0.194009 0.223509,-0.575067 -0.264327,-1.114117 z m 2.474717,0.922249 c 0,-0.238617 -0.302342,-0.317835 -0.671871,-0.176035 -0.369528,0.141805 -0.67187,0.337037 -0.67187,0.433858 0,0.09682 0.302342,0.176035 0.67187,0.176035 0.369529,0 0.671871,-0.195237 0.671871,-0.433858 z m 1.34374,-1.805709 c 0,-1.752148 -0.657322,-1.751212 -0.719564,8.96e-4 -0.02625,0.738497 0.124936,1.342718 0.335935,1.342718 0.210994,0 0.383629,-0.604683 0.383629,-1.34374 z m -1.791654,-0.223957 c 0,-0.369528 -0.302341,-0.67187 -0.67187,-0.67187 -0.369528,0 -0.67187,0.302342 -0.67187,0.67187 0,0.369529 0.302342,0.67187 0.67187,0.67187 0.369529,0 0.67187,-0.302341 0.67187,-0.67187 z M 51.979935,44.827199 c -0.140062,-0.226622 0.274504,-0.828286 0.921255,-1.337022 1.054016,-0.829087 1.145507,-1.127787 0.882533,-2.881404 -0.265734,-1.772052 -0.450028,-2.005827 -1.955496,-2.48057 -1.297283,-0.409088 -2.006218,-0.398975 -3.229809,0.04608 -1.447589,0.526531 -1.567697,0.712379 -1.567697,2.425678 0,2.24754 1.002457,3.501765 3.284463,4.109355 0.903419,0.240538 1.704871,0.458175 1.780998,0.483639 0.07612,0.02544 0.02383,-0.139131 -0.116247,-0.365758 z M 48.688,42.910098 c -0.295623,-0.295623 -0.537496,-1.207637 -0.537496,-2.026696 0,-1.927361 1.744063,-2.790548 3.41981,-1.692561 1.161636,0.761135 1.446886,2.794199 0.521828,3.719257 -0.692886,0.692886 -2.711256,0.692886 -3.404142,0 z m 2.597898,-1.030201 c 0.444863,-0.536027 0.444863,-0.807713 0,-1.34374 -0.717226,-0.864203 -1.747046,-0.861381 -2.079778,0.0057 -0.25738,0.670741 0.531476,2.009922 1.183951,2.009922 0.186023,0 0.589145,-0.302342 0.895827,-0.67187 z m 14.190953,2.288081 c -0.09604,-0.273035 -0.556828,-0.429191 -1.023975,-0.347017 -1.453564,0.255701 -1.537727,0.744052 -0.136999,0.79493 0.800489,0.02907 1.265629,-0.150382 1.160974,-0.447913 z M 61.742718,43.36869 c 0.777085,-0.536103 1.465859,-1.008997 1.530605,-1.050877 0.06475,-0.04188 -0.230756,-1.404786 -0.656672,-3.028686 -0.58794,-2.241648 -1.027697,-3.067958 -1.826434,-3.431886 -0.915858,-0.417292 -1.367171,-0.23322 -3.486527,1.422018 -2.073875,1.619718 -2.434485,2.120915 -2.434485,3.383581 0,1.35045 0.209063,1.579558 2.351545,2.57703 2.863869,1.333321 2.779513,1.330916 4.521968,0.12882 z M 39.192237,42.327811 c 0,-0.369529 -0.189665,-0.67187 -0.421478,-0.67187 -0.56481,0 -0.969328,0.699457 -0.611477,1.057308 0.504434,0.504431 1.032955,0.307219 1.032955,-0.385438 z m 1.201801,-0.307941 c -0.142983,-0.357314 -0.249121,-0.251181 -0.270612,0.270616 -0.01944,0.472172 0.08641,0.736723 0.235253,0.587886 0.148837,-0.148841 0.164747,-0.535167 0.03534,-0.858502 z M 26.874619,39.976562 c 0,-1.621357 0.0547,-1.679971 1.567697,-1.679971 1.33991,0 1.846838,-0.335088 3.488831,-2.306168 1.610464,-1.933234 2.226141,-2.348584 3.807263,-2.568467 1.037372,-0.144265 2.129215,-0.29906 2.426318,-0.343987 0.297104,-0.04493 0.438954,-0.245487 0.315222,-0.44569 -0.123731,-0.200203 -0.02159,-0.744021 0.226986,-1.208486 0.660309,-1.233798 7.726891,-2.701947 8.869097,-1.842638 0.549375,0.413308 0.510366,0.289729 -0.125044,-0.396173 l -0.923476,-0.996852 -3.779614,0.893214 c -3.755539,0.887523 -3.78735,0.88762 -4.993244,0.01521 -1.54999,-1.121354 -2.364075,-1.107571 -3.531439,0.0598 -0.714196,0.714195 -0.874251,1.276557 -0.671268,2.358548 0.230776,1.230138 -0.01086,1.7379 -1.801381,3.784686 -1.137353,1.300166 -2.39738,2.331998 -2.800061,2.292962 -1.42546,-0.138187 -1.839119,0.04414 -2.545309,1.121929 -0.555433,0.847699 -0.603971,1.295397 -0.218523,2.01561 0.272529,0.509224 0.538805,0.925999 0.591726,0.92616 0.05292,1.61e-4 0.09622,-0.755693 0.09622,-1.679675 z m 7.710408,-7.556268 c -0.175911,-0.17591 -0.319837,-0.897252 -0.319837,-1.602983 0,-1.453154 0.79762,-1.937125 2.491757,-1.511924 0.974481,0.244578 1.125179,0.503221 1.006804,1.727981 -0.119779,1.239299 -0.329023,1.458944 -1.499049,1.573556 -0.747911,0.07327 -1.503765,-0.01075 -1.679675,-0.18663 z m 2.282374,-1.402295 c -0.08302,-0.431117 -0.447777,-0.783848 -0.810558,-0.783848 -0.362781,0 -0.727532,0.352731 -0.810557,0.783848 -0.105909,0.54997 0.135932,0.783848 0.810557,0.783848 0.674625,0 0.916471,-0.233878 0.810558,-0.783848 z m -7.958188,8.238193 c -0.598056,-0.598054 -1.600927,0.308218 -1.149446,1.038734 0.232375,0.375986 0.484208,0.367749 0.965366,-0.03158 0.451629,-0.374819 0.508,-0.683238 0.18408,-1.00716 z m 10.161715,1.233306 c -0.148841,-0.148837 -0.535164,-0.164747 -0.858502,-0.03534 -0.357315,0.142983 -0.251178,0.24912 0.270615,0.270611 0.472173,0.01944 0.736724,-0.08641 0.587887,-0.235253 z M 67.767574,35.709424 C 65.283679,33.963956 64.722036,33.345578 64.716442,32.350073 64.708155,30.865785 64.3644,30.309184 63.018308,29.600028 62.152845,29.14408 61.741137,29.199748 60.4813,29.94307 l -1.503887,0.887316 -4.267522,-1.249183 c -3.355158,-0.982118 -4.316116,-1.122551 -4.494815,-0.656864 -0.125622,0.32736 0.01294,0.514678 0.309786,0.418752 0.295394,-0.09546 2.351128,0.369576 4.5683,1.033421 3.890495,1.164853 4.035995,1.256026 4.167981,2.611709 0.119011,1.222343 0.366497,1.463034 1.906226,1.853859 1.029605,0.261341 1.873075,0.281492 2.017263,0.04819 0.493779,-0.798958 1.812866,-0.36532 4.338135,1.426128 1.713654,1.215678 2.590435,2.152463 2.620141,2.79946 0.04054,0.882398 0.07354,0.868759 0.356794,-0.147399 0.279216,-1.001638 -0.0091,-1.34549 -2.732128,-3.259038 z M 60.22809,33.115552 c -0.385448,-0.720216 -0.336912,-1.167912 0.218523,-2.015611 0.867447,-1.323889 2.068204,-1.396918 3.158551,-0.192101 0.67123,0.741703 0.723864,1.091864 0.302978,2.015611 -0.662303,1.453599 -2.94125,1.572561 -3.680052,0.192101 z m 2.703556,-0.865791 c 0,-0.597218 -0.298611,-0.895827 -0.895827,-0.895827 -0.597216,0 -0.895827,0.298609 -0.895827,0.895827 0,0.597217 0.298611,0.895827 0.895827,0.895827 0.597216,0 0.895827,-0.29861 0.895827,-0.895827 z m 9.439774,7.043438 c -0.05541,-0.53557 -0.66976,-0.431852 -0.862233,0.145572 -0.09854,0.295622 0.06271,0.456871 0.358331,0.35833 0.295622,-0.09854 0.522378,-0.325297 0.503902,-0.503902 z M 47.926548,37.176808 c 0.344208,-0.556941 3.80342,-0.578356 4.671633,-0.02892 0.82447,0.521755 5.927632,-3.290097 5.588346,-4.174264 -0.32475,-0.846285 -6.784387,-2.46802 -8.764715,-2.20044 -0.90207,0.121887 -1.978048,0.03251 -2.39106,-0.198629 -0.905331,-0.506648 -7.042918,0.769275 -6.980963,1.45125 0.03951,0.435146 6.670425,5.49655 7.290431,5.564832 0.170225,0.01875 0.434073,-0.167475 0.586328,-0.413827 z m 8.791446,-0.783848 c 0.557146,-0.710417 0.541304,-0.72626 -0.169114,-0.169112 -0.746112,0.585139 -0.983385,0.95296 -0.614734,0.95296 0.09301,0 0.445741,-0.352732 0.783848,-0.783848 z m -7.671663,-8.17442 c 0,-0.246352 -0.201561,-0.447913 -0.447913,-0.447913 -0.246353,0 -0.447914,0.201561 -0.447914,0.447913 0,0.246353 0.201561,0.447914 0.447914,0.447914 0.246352,0 0.447913,-0.201561 0.447913,-0.447914 z M 0.6716864,41.208027 v -1.367689 l 6.6067223,0.123956 6.6067223,0.123951 v 1.119782 1.119784 l -6.6067223,0.123951 -6.6067223,0.123955 z m 9.5367866,0.116762 c -1.529456,-0.0872 -4.1497492,-0.08784 -5.8228734,-0.0013 -1.6731235,0.08641 -0.4217499,0.157759 2.7808308,0.158543 3.2025806,8.96e-4 4.5715006,-0.06992 3.0420426,-0.157119 z m 76.54481,-0.0048 0.141728,-1.23176 6.348742,-0.124068 c 6.030375,-0.11785 6.363134,-0.07874 6.635635,0.779838 0.157792,0.497148 0.161202,1.107274 0.0076,1.35583 -0.167067,0.270351 -2.890045,0.451922 -6.777346,0.451922 h -6.498058 z m 12.011433,-0.111978 c 0,-0.274719 -2.164913,-0.447914 -5.598917,-0.447914 -3.434005,0 -5.598918,0.173195 -5.598918,0.447914 0,0.274719 2.164913,0.447913 5.598918,0.447913 3.434004,0 5.598917,-0.173194 5.598917,-0.447913 z M 18.838762,18.391132 c -3.813895,-3.828261 -4.354467,-4.55038 -3.855994,-5.151004 0.318862,-0.384205 0.810802,-0.698555 1.093199,-0.698555 0.282398,0 2.509536,2.003602 4.949194,4.45245 3.813895,3.828259 4.354468,4.55038 3.855994,5.151002 -0.318862,0.384206 -0.810802,0.698555 -1.093199,0.698555 -0.282398,0 -2.509535,-2.003602 -4.949194,-4.452448 z m 1.317156,-0.922511 c -2.191541,-2.201743 -4.085401,-3.902388 -4.208577,-3.779211 -0.123176,0.123175 1.569122,2.025381 3.760664,4.227124 2.191541,2.201742 4.085401,3.902387 4.208577,3.779211 0.123176,-0.123176 -1.569122,-2.025383 -3.760664,-4.227124 z m 55.406885,4.837463 c -0.295623,-0.295623 -0.537496,-0.67162 -0.537496,-0.83555 0,-0.782922 8.592053,-8.928961 9.417844,-8.928961 2.18236,0 1.466169,1.417073 -2.963278,5.863202 -2.432183,2.441343 -4.63757,4.438805 -4.900862,4.438805 -0.263293,0 -0.720585,-0.241873 -1.016208,-0.537496 z m 6.602875,-5.910956 c 1.340501,-1.368209 2.337821,-2.587108 2.216266,-2.708663 -0.121559,-0.121557 -2.024577,1.620023 -4.228934,3.870178 -2.204356,2.250156 -3.201676,3.469054 -2.216266,2.708664 0.985409,-0.760391 2.888427,-2.501971 4.228934,-3.870179 z M 49.046331,6.7187 V 0 h 1.119783 1.119784 v 6.7187 6.7187 H 50.166114 49.046331 Z M 50.274308,3.6952851 C 50.188129,2.0324068 50.117614,3.3929436 50.117614,6.7187 c 0,3.325757 0.07051,4.686293 0.156694,3.0234153 0.08618,-1.6628785 0.08618,-4.3839522 0,-6.0468302 z"
       id="path190" /></g><metadata
     id="metadata192"><rdf:RDF><cc:Work
         rdf:about=""><dc:title>Ingeniaux Logo</dc:title></cc:Work></rdf:RDF></metadata></svg>
