<?xml version="1.0" standalone="no"?>
<svg xmlns="http://www.w3.org/2000/svg" version="1.1" height="957.1" width="1109" style="background-color: #000">
   <g class="wrapper" id="spurGear">
      <g class="spurGearWrapper" id="small">
         <polygon class="spurGear" id="small"
            points="377.259,240.604 394.175,238.429 408.368,235.019 422.679,228.532 436.854,216.669 436.870,215.144 436.875,213.619 436.870,212.094 436.854,210.569 422.679,198.706 408.368,192.219 394.175,188.809 377.259,186.634 376.440,182.190 375.496,177.771 374.429,173.381 373.239,169.021 387.536,159.722 398.844,150.492 408.923,138.438 416.547,121.600 415.900,120.219 415.243,118.843 414.576,117.471 413.900,116.104 395.982,111.566 380.274,111.930 366.007,115.016 349.822,120.396 347.156,116.748 344.389,113.176 341.522,109.683 338.559,106.272 347.405,91.690 353.589,78.468 357.440,63.235 357.002,44.756 355.820,43.793 354.631,42.838 353.435,41.891 352.233,40.953 334.120,44.638 320.126,51.782 308.611,60.753 296.363,72.623 292.378,70.492 288.335,68.475 284.237,66.572 280.087,64.784 281.731,47.808 281.565,33.212 278.425,17.817 270.013,1.358 268.530,1.003 267.044,0.658 265.556,0.324 264.066,0.000 249.346,11.180 239.837,23.688 233.355,36.767 227.470,52.775 222.956,52.585 218.437,52.521 213.919,52.585 209.405,52.775 203.520,36.767 197.037,23.688 187.529,11.180 172.809,0.000 171.319,0.324 169.830,0.658 168.345,1.003 166.861,1.358 158.450,17.817 155.310,33.212 155.144,47.808 156.788,64.784 152.638,66.572 148.540,68.475 144.496,70.492 140.511,72.623 128.264,60.753 116.749,51.782 102.755,44.638 84.642,40.953 83.440,41.891 82.244,42.838 81.055,43.793 79.872,44.756 79.435,63.235 83.286,78.468 89.469,91.690 98.316,106.272 95.353,109.683 92.486,113.176 89.719,116.748 87.052,120.396 70.868,115.016 56.601,111.930 40.893,111.566 22.975,116.104 22.299,117.471 21.632,118.843 20.975,120.219 20.328,121.600 27.952,138.438 38.030,150.492 49.338,159.722 63.636,169.021 62.446,173.381 61.379,177.771 60.435,182.190 59.616,186.634 42.700,188.809 28.506,192.219 14.196,198.706 0.021,210.569 0.005,212.094 0.000,213.619 0.005,215.144 0.021,216.669 14.196,228.532 28.506,235.019 42.700,238.429 59.616,240.604 60.435,245.048 61.379,249.467 62.446,253.857 63.636,258.217 49.338,267.516 38.030,276.746 27.952,288.800 20.328,305.638 20.975,307.019 21.632,308.395 22.299,309.767 22.975,311.134 40.893,315.672 56.601,315.308 70.868,312.222 87.052,306.842 89.719,310.490 92.486,314.062 95.353,317.555 98.316,320.966 89.469,335.548 83.286,348.770 79.435,364.003 79.872,382.482 81.055,383.445 82.244,384.400 83.440,385.347 84.642,386.285 102.755,382.600 116.749,375.456 128.264,366.485 140.511,354.615 144.496,356.746 148.540,358.763 152.638,360.666 156.788,362.454 155.144,379.430 155.310,394.026 158.450,409.421 166.861,425.880 168.345,426.235 169.830,426.580 171.319,426.914 172.809,427.238 187.529,416.058 197.037,403.550 203.520,390.471 209.405,374.463 213.919,374.653 218.437,374.717 222.956,374.653 227.470,374.463 233.355,390.471 239.837,403.550 249.346,416.058 264.066,427.238 265.556,426.914 267.044,426.580 268.530,426.235 270.013,425.880 278.425,409.421 281.565,394.026 281.731,379.430 280.087,362.454 284.237,360.666 288.335,358.763 292.378,356.746 296.363,354.615 308.611,366.485 320.126,375.456 334.120,382.600 352.233,386.285 353.435,385.347 354.631,384.400 355.820,383.445 357.002,382.482 357.440,364.003 353.589,348.770 347.405,335.548 338.559,320.966 341.522,317.555 344.389,314.062 347.156,310.490 349.822,306.842 366.007,312.222 380.274,315.308 395.982,315.672 413.900,311.134 414.576,309.767 415.243,308.395 415.900,307.019 416.547,305.638 408.923,288.800 398.844,276.746 387.536,267.516 373.239,258.217 374.429,253.857 375.496,249.467 376.440,245.048" />
         <circle cx="218.44" cy="213.62" r="40" fill="#000000" />
      </g>
      <g class="spurGearWrapper" id="big" transform="translate(290, 140) rotate(0.5)" transform-origin="center">
         <polygon class="spurGear" id="big"
            points="759.513,397.542 775.708,391.916 789.085,385.987 802.267,378.311 814.842,365.517 814.634,363.540 814.416,361.564 814.188,359.588 813.951,357.614 798.845,347.939 784.285,343.389 769.924,340.585 752.883,338.704 751.886,333.866 750.820,329.042 749.687,324.234 748.487,319.442 763.024,310.353 774.746,301.596 785.890,291.180 795.303,275.908 794.660,274.027 794.007,272.149 793.346,270.273 792.676,268.401 775.795,262.330 760.588,261.134 745.963,261.597 728.931,263.554 726.882,259.060 724.769,254.594 722.595,250.158 720.358,245.754 732.509,233.658 741.989,222.512 750.535,209.877 756.313,192.894 755.268,191.203 754.214,189.516 753.152,187.835 752.082,186.160 734.274,183.997 719.182,186.215 705.026,189.920 688.857,195.619 685.859,191.693 682.806,187.809 679.699,183.968 676.538,180.172 685.692,165.676 692.454,152.700 697.975,138.479 699.829,120.637 698.433,119.220 697.031,117.811 695.621,116.408 694.205,115.013 676.362,116.867 662.142,122.388 649.166,129.150 634.670,138.304 630.873,135.143 627.033,132.036 623.149,128.983 619.223,125.985 624.922,109.816 628.627,95.660 630.845,80.568 628.682,62.760 627.006,61.690 625.325,60.628 623.639,59.574 621.948,58.529 604.965,64.307 592.330,72.853 581.184,82.333 569.088,94.483 564.684,92.247 560.248,90.072 555.782,87.960 551.287,85.911 553.245,68.879 553.708,54.254 552.511,39.046 546.440,22.166 544.568,21.496 542.693,20.834 540.815,20.182 538.933,19.539 523.662,28.952 513.246,40.095 504.488,51.818 495.400,66.355 490.608,65.155 485.799,64.022 480.976,62.956 476.138,61.959 474.256,44.918 471.453,30.556 466.903,15.997 457.228,0.890 455.253,0.653 453.278,0.426 451.302,0.208 449.324,0.000 436.530,12.575 428.855,25.757 422.926,39.134 417.300,55.329 412.361,55.225 407.421,55.191 402.481,55.225 397.542,55.329 391.916,39.134 385.987,25.757 378.311,12.575 365.517,0.000 363.540,0.208 361.563,0.426 359.588,0.653 357.614,0.890 347.939,15.997 343.389,30.556 340.585,44.918 338.704,61.959 333.866,62.956 329.042,64.022 324.234,65.155 319.442,66.355 310.353,51.818 301.596,40.095 291.179,28.952 275.908,19.539 274.027,20.182 272.148,20.834 270.273,21.496 268.401,22.166 262.330,39.046 261.134,54.254 261.596,68.879 263.554,85.911 259.059,87.960 254.594,90.072 250.158,92.247 245.753,94.483 233.658,82.333 222.512,72.853 209.876,64.307 192.894,58.529 191.202,59.574 189.516,60.628 187.835,61.690 186.159,62.760 183.997,80.568 186.215,95.660 189.920,109.816 195.619,125.985 191.692,128.983 187.809,132.036 183.968,135.143 180.172,138.304 165.675,129.150 152.699,122.388 138.479,116.867 120.636,115.013 119.220,116.408 117.811,117.811 116.408,119.220 115.013,120.637 116.867,138.479 122.387,152.700 129.149,165.676 138.304,180.172 135.143,183.968 132.036,187.809 128.983,191.693 125.985,195.619 109.815,189.920 95.660,186.215 80.568,183.997 62.760,186.160 61.690,187.835 60.628,189.516 59.574,191.203 58.528,192.894 64.307,209.877 72.853,222.512 82.333,233.658 94.483,245.754 92.247,250.158 90.072,254.594 87.960,259.060 85.911,263.554 68.878,261.597 54.253,261.134 39.046,262.330 22.166,268.401 21.495,270.273 20.834,272.149 20.182,274.027 19.539,275.908 28.952,291.180 40.095,301.596 51.818,310.353 66.355,319.442 65.154,324.234 64.021,329.042 62.956,333.866 61.958,338.704 44.917,340.585 30.556,343.389 15.997,347.939 0.890,357.614 0.653,359.588 0.426,361.564 0.208,363.540 0.000,365.517 12.574,378.311 25.757,385.987 39.134,391.916 55.329,397.542 55.225,402.481 55.190,407.421 55.225,412.361 55.329,417.300 39.134,422.926 25.757,428.855 12.574,436.531 0.000,449.325 0.208,451.302 0.426,453.278 0.653,455.254 0.890,457.228 15.997,466.903 30.556,471.453 44.917,474.257 61.958,476.138 62.956,480.976 64.021,485.800 65.154,490.608 66.355,495.400 51.818,504.489 40.095,513.246 28.952,523.662 19.539,538.934 20.182,540.815 20.834,542.693 21.495,544.569 22.166,546.441 39.046,552.512 54.253,553.708 68.878,553.245 85.911,551.288 87.960,555.782 90.072,560.248 92.247,564.684 94.483,569.088 82.333,581.184 72.853,592.330 64.307,604.965 58.528,621.948 59.574,623.639 60.628,625.326 61.690,627.007 62.760,628.682 80.568,630.845 95.660,628.627 109.815,624.922 125.985,619.223 128.983,623.149 132.036,627.033 135.143,630.874 138.304,634.670 129.149,649.166 122.387,662.142 116.867,676.363 115.013,694.205 116.408,695.622 117.811,697.031 119.220,698.434 120.636,699.829 138.479,697.975 152.699,692.454 165.675,685.692 180.172,676.538 183.968,679.699 187.809,682.806 191.692,685.859 195.619,688.857 189.920,705.026 186.215,719.182 183.997,734.274 186.159,752.082 187.835,753.152 189.516,754.214 191.202,755.268 192.894,756.313 209.876,750.535 222.512,741.989 233.658,732.509 245.753,720.359 250.158,722.595 254.594,724.770 259.059,726.882 263.554,728.931 261.596,745.963 261.134,760.588 262.330,775.796 268.401,792.676 270.273,793.346 272.148,794.008 274.027,794.660 275.908,795.303 291.179,785.890 301.596,774.747 310.353,763.024 319.442,748.487 324.234,749.687 329.042,750.820 333.866,751.886 338.704,752.883 340.585,769.924 343.389,784.286 347.939,798.845 357.614,813.952 359.588,814.189 361.563,814.416 363.540,814.634 365.517,814.842 378.311,802.267 385.987,789.085 391.916,775.708 397.542,759.513 402.481,759.617 407.421,759.651 412.361,759.617 417.300,759.513 422.926,775.708 428.855,789.085 436.530,802.267 449.324,814.842 451.302,814.634 453.278,814.416 455.253,814.189 457.228,813.952 466.903,798.845 471.453,784.286 474.256,769.924 476.138,752.883 480.976,751.886 485.799,750.820 490.608,749.687 495.400,748.487 504.488,763.024 513.246,774.747 523.662,785.890 538.933,795.303 540.815,794.660 542.693,794.008 544.568,793.346 546.440,792.676 552.511,775.796 553.708,760.588 553.245,745.963 551.287,728.931 555.782,726.882 560.248,724.770 564.684,722.595 569.088,720.359 581.184,732.509 592.330,741.989 604.965,750.535 621.948,756.313 623.639,755.268 625.325,754.214 627.006,753.152 628.682,752.082 630.845,734.274 628.627,719.182 624.922,705.026 619.223,688.857 623.149,685.859 627.033,682.806 630.873,679.699 634.670,676.538 649.166,685.692 662.142,692.454 676.362,697.975 694.205,699.829 695.621,698.434 697.031,697.031 698.433,695.622 699.829,694.205 697.975,676.363 692.454,662.142 685.692,649.166 676.538,634.670 679.699,630.874 682.806,627.033 685.859,623.149 688.857,619.223 705.026,624.922 719.182,628.627 734.274,630.845 752.082,628.682 753.152,627.007 754.214,625.326 755.268,623.639 756.313,621.948 750.535,604.965 741.989,592.330 732.509,581.184 720.358,569.088 722.595,564.684 724.769,560.248 726.882,555.782 728.931,551.288 745.963,553.245 760.588,553.708 775.795,552.512 792.676,546.441 793.346,544.569 794.007,542.693 794.660,540.815 795.303,538.934 785.890,523.662 774.746,513.246 763.024,504.489 748.487,495.400 749.687,490.608 750.820,485.800 751.886,480.976 752.883,476.138 769.924,474.257 784.285,471.453 798.845,466.903 813.951,457.228 814.188,455.254 814.416,453.278 814.634,451.302 814.842,449.325 802.267,436.531 789.085,428.855 775.708,422.926 759.513,417.300 759.617,412.361 759.651,407.421 759.617,402.481" />
         <circle cx="407.42" cy="407.42" r="100" fill="#000000" />
      </g>
   </g>
   <g class="wrapper" id="title" transform="translate(6, 567)">
      <text class="title" id="main" font-family="Ingenium, monospace">INGEN!UM</text>
   </g>
   <style>
      .wrapper#spurGear {
         fill: #ff0000;
      }

      .title#main {
         font-size: 138px;
         fill: #ffffff;
      }
   </style>
</svg>